<svg id="Layer_1" data-name="Layer 1" xmlns="http://www.w3.org/2000/svg" xmlns:xlink="http://www.w3.org/1999/xlink" viewBox="0 0 316.04 446.36"><defs><clipPath id="clip-path" transform="translate(-139.13 -180.39)"><rect width="595.28" height="841.89" fill="none"/></clipPath></defs><title>ADURE_LOGO</title><g clip-path="url(#clip-path)"><path d="M440.9,322.52a8,8,0,1,1-8-8,8,8,0,0,1,8,8" transform="translate(-139.13 -180.39)" fill="#1b75bc"/><path d="M365.75,278a8,8,0,1,1-8-8,8,8,0,0,1,8,8" transform="translate(-139.13 -180.39)" fill="#1b75bc"/><path d="M333,364.08a8,8,0,1,1-8-8,8,8,0,0,1,8,8" transform="translate(-139.13 -180.39)" fill="#1b75bc"/><path d="M310.88,439.9a8,8,0,1,1-8-8,8,8,0,0,1,8,8" transform="translate(-139.13 -180.39)" fill="#1b75bc"/><path d="M293.92,439.9a8,8,0,1,1-8-8,8,8,0,0,1,8,8" transform="translate(-139.13 -180.39)" fill="#1b75bc"/><path d="M379.94,253.26a8.88,8.88,0,0,1,1.94-4.87c1.41-1.68,3.65-2.91,6.61,0,5.38,5.21,30.65,51.71,28.43,100.26s-19.07,109.74-85.13,130.58c0,0,73.1-32.31,75.93-117.61,1.86-56.25-11.79-72.08-14.58-75.68a3.1,3.1,0,0,0-2.52-1.26,2.14,2.14,0,0,0-1.29.45c-1.16.94-6.82,4.6-8.87-1.33-2-5.75-2.36-11.35-.51-30.5" transform="translate(-139.13 -180.39)" fill="#1b75bc"/><path d="M424.75,302.1a8.74,8.74,0,0,1,2.37-1.11c1.49-.44,3.71-.73,5.26.62,2.55,2.22,9,6.21,13.52,2.22s5.43-13.3,5.54-17.29,1.66-10.42-9-8.2-30.65,13.75-58.75,60.47l-16,32.92s-6.4-15.13-14.13-14.63-12.3,5.49-13.3,17.46.5,21.37,10.73,19.79,9.23-2.16,9.23-2.16-11.64,71.41-61.19,65.18c-48.22-6.07-42.92-55.7-41.43-83.8,0,0-12.11,36.58,0,70.33s58.26,37.17,79.81,18c16.29-14.46,26.6-38.32,32.75-75.57,0,0,2-.67,14.13-25.77,12-24.74,23.22-47.12,40.37-58.48" transform="translate(-139.13 -180.39)" fill="#1b75bc"/><path d="M370.55,240.78s3.74-4.65,3.91.08-2.41,11.89-12.8,17.29a46.8,46.8,0,0,0-16.13,14.22s-1.08-6.48,7.23-15.3c0,0-14.31.79-9.56-16.46,4.27-15.49,16.24-8.53,16.88-4.07.58,4-1.41,8.9-5.65,5.32,0,0-2.24-2.18-4.16.17-2.92,3.58-1.33,8,1.83,8.48s10.56,1.58,18.46-9.73" transform="translate(-139.13 -180.39)" fill="#1b75bc"/><path d="M292.57,302.72a20.13,20.13,0,0,1,.85-8.42,23.48,23.48,0,0,1,4.8-8.54c5.32-5.82,9.56-.08,9.56,3.58s-3.16,23.61-21.53,35c0,0,13-11.72,14-21.78s-2.91-5-3.66-4-4,4.16-4,4.16" transform="translate(-139.13 -180.39)" fill="#1b75bc"/><path d="M370.36,289.75c-9.87.67-20.4,13.74-20.4,13.74-1.88-21.84-8.76-31.81-14.3-41s-13.3.33-13.3.33-1.89,1.33-3.44,9.09-.33,11.75,7,11.53,10.2,4.77,13,18.07.89,36.25-2.88,36.91-5.43-14.19-9.31-27.93-14.63,3.44-16.18,8.42.11,6.54,5.21,7.65a6.07,6.07,0,0,1,3.66,9.75c-2.55,3.1-8.31-.33-11.86-4.21s-9.64-7-19.18,0S273.92,355,272.81,361.91a15.1,15.1,0,0,0,14.41,17.4c11.2.67,13,2.55,13,2.55,9.53,6.21,8.54,14.63,4.32,22.28s-24.5,16.07-38.24,5-5.76-55.53-5.76-55.53-7.87,34.36-2.66,57.64,39.13,19,50.43,4.54,8.09-36.69,3.44-45.89-16.18-8.2-22.5-9.31-8-7.54-4.43-12.08,10-2.88,12.3-2,5.65,9,14.63,7.43,13.74-11.08,13.74-11.08c.78,3.66,3.44,14.52,21.39,9.75,25.27-7.65,33.92-36.91,35.58-45.89s-2.22-17.62-12.08-17m-21.61,46.33s.5-16.4,9.7-25.11,12.3-4.1,12.53-.39.06,18.9-22.22,25.49" transform="translate(-139.13 -180.39)" fill="#1b75bc"/><path d="M251.42,235s43.9,1,42.4,7.15S264.22,340,264.22,340s8.48-50.71,13.8-70,9-26.1,1.66-27.93c-9.31-2.49-28.27-7-28.27-7" transform="translate(-139.13 -180.39)" fill="#1b75bc"/><path d="M246,226.9l-3.77,209.72-15.07-198s-.83-4.27,2.58-6.26,4.85-3,16.27-5.49" transform="translate(-139.13 -180.39)" fill="#be1e2d"/><path d="M206.69,181.34l53.7,10,1,37.91,7.82-43.9s-48.38-5.32-62.52-4" transform="translate(-139.13 -180.39)" fill="#be1e2d"/><path d="M202.87,184.33l35.8,281.16h-6.6s-31.54-84.52-74.32-32c0,0,26.27-50.77,62-11.2l-44-219.64s-.83-2.88,3.33-6.15,20.39-15.63,20.39-15.63,2.88-2.44,3.44,3.44" transform="translate(-139.13 -180.39)" fill="#1b75bc"/><path d="M204.31,378.65l3.44,18.07s-37.47-2.55-51.54,25.94c-8.65,21,14.63,53.43,14.63,53.43s-38.24-21.95-23.94-74.82C162.52,360.69,201.76,358,201.76,358l2.11,17.18s-27.27-3-46.22,27.27c0,0,22.17-26,46.67-23.83" transform="translate(-139.13 -180.39)" fill="#be1e2d"/><path d="M185.09,535.38v5.84c-6.3,0-8.1-1-10.46-4.51-1.64,8-8.51,13-16.86,13a17.47,17.47,0,0,1-17.63-17.79v-5.74h5.74v5.07c0,7.95,4.61,12.92,12,12.92,6.66,0,11.69-4.41,11.69-9.64,0-3.18-1.9-5.43-5.18-5.43a5.6,5.6,0,0,0-.92.05V524h2.25a11,11,0,0,1,10.15,6.1c2.1,3.85,4.1,5.33,7,5.33Zm-29.32,25.68h-5.64v-5.69h5.64Zm9.69,0h-5.64v-5.69h5.64Z" transform="translate(-139.13 -180.39)" fill="#1b75bc"/><path d="M207.29,541.23H183.61v-5.84h5.33a3.48,3.48,0,0,0,3.43-1.74,9,9,0,0,0,.61-3.89V518h5.69v11.48c0,3-.41,5-1.23,5.95h9.84Zm-8.66,11.28H193v-5.74h5.64Z" transform="translate(-139.13 -180.39)" fill="#1b75bc"/><path d="M248.19,541.23H205.71v-5.84h9.43V508.17h5.64l-.61,18.55c4.71-6.1,9.64-8.87,15-8.87,8.87,0,13.27,6,13.27,18,0,1.69-.1,3.43-.26,5.33m-5.64-5.84v-1.64c0-6.51-2.92-10.76-7.89-10.76-5.79,0-11.58,5.13-15.07,12.4Zm-5.74-22.14h-5.64v-5.69h5.64Z" transform="translate(-139.13 -180.39)" fill="#1b75bc"/><path d="M282.44,541.23h-7c-.77,5.64-4.51,8.46-11.17,8.46v-4.51c3,0,4.87-1.23,5.69-3.95H264.5c-6.2,0-11.22-5.18-11.22-11.94s5-11.38,11.48-11.38c6.25,0,10.66,4.82,10.66,11.53v5.94h7Zm-12.76-5.84v-7c-.31-3-2.05-5.18-5-5.18-3.38,0-5.54,2.36-5.54,5.79s2.41,6.41,5.49,6.41Z" transform="translate(-139.13 -180.39)" fill="#1b75bc"/><path d="M295.61,531.95c0,6.2-2.87,9.28-8.56,9.28h-5.54v-5.84h4.36c1.9,0,3.08-.56,3.64-1.69a11.15,11.15,0,0,0,.41-3.69V518h5.69Zm-.05,20.5H290v-5.74h5.59Z" transform="translate(-139.13 -180.39)" fill="#1b75bc"/><path d="M308.12,505.5h-8.87v-2.36h2.05a8.71,8.71,0,0,1-.46-1.79,4,4,0,0,1,4-4.15,3.47,3.47,0,0,1,3.23,2.26l-1.85,1a1.31,1.31,0,0,0-1.43-1.13,1.84,1.84,0,0,0-1.74,1.95,2,2,0,0,0,.92,1.9h4.15Zm-1.43,35.73H301V508.11h5.69Z" transform="translate(-139.13 -180.39)" fill="#1b75bc"/><path d="M354.92,541.23h-6.2c-4.46,0-8.1-3-9.28-7.59-1.79,2.56-4,3.85-6.56,3.85-6.56,0-10.61-4.92-10.61-12,0-7.69,4-12.46,10.61-12.46h12.66v16.25c0,4,1.9,6.15,5.74,6.15h3.64Zm-15.33-16.35v-7.43h-5.18c-4,0-6.46,3.18-6.46,7.94,0,3.95,2.2,7.33,5.64,7.33,3.74,0,6-3.48,6-7.84m-4.2-16h-5.64v-5.74h5.64Zm9.69,0h-5.64v-5.74h5.64Z" transform="translate(-139.13 -180.39)" fill="#1b75bc"/><path d="M387.67,537.64v3.59H353.38v-5.84h28.14a12.46,12.46,0,0,0-2.77-8.15,10.87,10.87,0,0,0-8.87-3.9H358l10.1-15.17H375L368,518h2.51a17,17,0,0,1,9.84,2.82c4.87,3.23,7.28,8.82,7.28,16.86" transform="translate(-139.13 -180.39)" fill="#1b75bc"/><path d="M413.15,541.22H404c-.87,5.48-5.54,8.51-12.51,8.51v-4.92c4.77,0,7.13-2.36,7.13-7.28V518h5.74v17.43h8.82Z" transform="translate(-139.13 -180.39)" fill="#1b75bc"/><path d="M411.36,535.38h4.2c2.92,0,4.36-2,4.36-6V518h5.79v11.17c0,3-.31,5-.92,5.94v.31h5.33c2.92,0,4.36-1.9,4.36-5.69V518h5.79v11.17c0,3.33-.41,5.43-1.18,6.25h5.59c2.92,0,4.36-1.9,4.36-5.64V518h5.79V529c0,7.38-4.1,12.2-9.94,12.2H411.36Zm18.3-27.83h5.59v5.69h-5.59Zm4.87-8.1h5.64v5.74h-5.64Zm4.82,8.1h5.59v5.69h-5.59Z" transform="translate(-139.13 -180.39)" fill="#1b75bc"/><path d="M171.92,574.36v12.3c0,5.18-2.17,7.79-6.46,7.79H151.87q-12.74,0-12.74-12.88v-7.26h3.1v7.26c0,6.59,3.14,9.78,9.38,9.78h12.83c3.14,0,4.38-1.19,4.38-6.06V574.36Zm-17.57,0h-3.14v-3.76h3.14Zm5.8,0H157v-3.76h3.14Z" transform="translate(-139.13 -180.39)" fill="#1b75bc"/><rect x="38.72" y="385.42" width="3.1" height="28.63" fill="#1b75bc"/><path d="M194,574.36v16.33c0,7.21-2.79,10.67-9.29,11v-3c4.12,0,6.2-2.26,6.2-7.48v-16.9Z" transform="translate(-139.13 -180.39)" fill="#1b75bc"/><path d="M209.71,594.45h-3.5a5.47,5.47,0,0,1-4-1.68,7.06,7.06,0,0,1-1.9-5.35V565.82h3.19v19.73a8.32,8.32,0,0,0,.88,4.38,3.39,3.39,0,0,0,2.52,1.37,27.86,27.86,0,0,0,2.83,0Z" transform="translate(-139.13 -180.39)" fill="#1b75bc"/><path d="M237.81,594.45h-4.38a32,32,0,0,1-5.09-.26,16.86,16.86,0,0,1-5.27-2.12,17,17,0,0,1-5.31,2.12,32.23,32.23,0,0,1-5.13.26h-4.38v-3.1h7a9.69,9.69,0,0,0,4.51-1.06,10.63,10.63,0,0,1-4.69-4.11,10.46,10.46,0,0,1-1.59-5.58,8.89,8.89,0,0,1,2.43-6.37,10.43,10.43,0,0,1,14.29,0,9,9,0,0,1,2.39,6.37,10.46,10.46,0,0,1-1.59,5.58,10.62,10.62,0,0,1-4.69,4.11,9.7,9.7,0,0,0,4.51,1.06h7Zm-14.74-6a10.26,10.26,0,0,0,4.6-3.63,8,8,0,0,0,1.55-4.65,5.89,5.89,0,0,0-1.59-4.25,6,6,0,0,0-4.6-1.81,5.79,5.79,0,0,0-6.15,6,8,8,0,0,0,1.5,4.65,10.31,10.31,0,0,0,4.69,3.67m-1.19-20.75h-3.14v-3.76h3.14Zm5.79,0h-3.14v-3.76h3.14Z" transform="translate(-139.13 -180.39)" fill="#1b75bc"/><path d="M268.65,594.45h-8.59a7.82,7.82,0,0,1-6.59-3.45,14.82,14.82,0,0,1-10,3.45h-6.95v-3.1h6.86a12.18,12.18,0,0,0,4.07-.58,17.56,17.56,0,0,0,3.94-2.21,19.74,19.74,0,0,0-9.47-7.79l0-3.49A20.18,20.18,0,0,1,253,573.74,18.08,18.08,0,0,1,264.63,578a42.5,42.5,0,0,1-2.83,4.87,28.78,28.78,0,0,1-5.84,6,6.21,6.21,0,0,0,3.14,2.26,17.9,17.9,0,0,0,3.58.22h6ZM261,579c-1.9-.93-3.05-1.46-3.36-1.59a12.54,12.54,0,0,0-4.51-.84,17.64,17.64,0,0,0-8.45,2.52,17.34,17.34,0,0,1,5.09,3,25.55,25.55,0,0,1,4,4.56A22.61,22.61,0,0,0,261,579" transform="translate(-139.13 -180.39)" fill="#1b75bc"/><path d="M283.12,594.45H267.86v-3.05h2.83c1.9,0,3.14-.62,3.76-1.81a9.9,9.9,0,0,0,.66-4.29V565.82h3.1v20.84a11,11,0,0,1-.84,4.69h5.75Z" transform="translate(-139.13 -180.39)" fill="#1b75bc"/><path d="M292.73,565.82v20.84c0,5.18-2.17,7.79-6.51,7.79h-3.85v-3.05h2.83c1.9,0,3.14-.62,3.76-1.86a9.52,9.52,0,0,0,.66-4.25V565.82Z" transform="translate(-139.13 -180.39)" fill="#1b75bc"/><path d="M330.69,584.18a10.78,10.78,0,0,1-2.48,7.26,9.68,9.68,0,0,1-13.94.09,10.5,10.5,0,0,1-2.48-7.3,10.32,10.32,0,0,1,2.57-7.26,9.73,9.73,0,0,1,13.94,0,10.79,10.79,0,0,1,2.39,7.26m-3.54-.27a9.62,9.62,0,0,0-1.19-5.09,5.09,5.09,0,0,0-4.47-2.21,5.36,5.36,0,0,0-4.78,2.39,9.9,9.9,0,0,0-1.33,5.44,8.85,8.85,0,0,0,1.33,5.09,5.16,5.16,0,0,0,4.56,2.3c3.94,0,5.89-2.65,5.89-7.92m-7-12.74H317v-3.76h3.14Zm5.8,0h-3.14v-3.76H326Z" transform="translate(-139.13 -180.39)" fill="#1b75bc"/><path d="M360.61,594.45H334v-3.1h16.37c0-3.94-.71-7.12-2.17-9.51a9.66,9.66,0,0,0-8.18-4.6h-1.2v-2.92q14,0,14.74,17h7Z" transform="translate(-139.13 -180.39)" fill="#1b75bc"/><path d="M394.9,594.45H359.37v-3.1h26.9c0-.57.09-1.11.09-1.59,0-7.48-3.94-11.77-10.89-11.77-3.76,0-6.55,1.46-8.32,4.38-.44-.49-1.33-1.37-2.7-2.74,2.52-3.14,6.15-4.69,11-4.69,8.81,0,14.6,5.84,14.6,15v1.37h4.87Z" transform="translate(-139.13 -180.39)" fill="#1b75bc"/><path d="M409.19,594.45H393.93v-3.05h2.83c1.9,0,3.14-.62,3.76-1.81a9.9,9.9,0,0,0,.66-4.29V574.36h3.1v12.3a11,11,0,0,1-.84,4.69h5.75Zm-10.75-23.27H395.3v-3.76h3.14Zm5.8,0H401.1v-3.76h3.14Z" transform="translate(-139.13 -180.39)" fill="#1b75bc"/><path d="M436.72,594.45h-6.77a8.32,8.32,0,0,1-7.43,3.85c-3.41,0-6-1.28-7.61-3.85h-6.55v-3.1h5.22a13.2,13.2,0,0,1-.35-3.05,10.65,10.65,0,0,1,2.48-7.21,8.69,8.69,0,0,1,6.86-2.83,8.56,8.56,0,0,1,6.81,2.88,10.63,10.63,0,0,1,2.35,7.12,11.62,11.62,0,0,1-.4,3.1h5.4Zm-8.63-6.51a8.51,8.51,0,0,0-1.19-4.78,4.6,4.6,0,0,0-4.2-2.17,5.14,5.14,0,0,0-4.56,2.35,9.17,9.17,0,0,0-1.24,5.13,8.53,8.53,0,0,0,1.24,4.87,5,5,0,0,0,4.38,2.17q5.58,0,5.57-7.57" transform="translate(-139.13 -180.39)" fill="#1b75bc"/><path d="M446.15,565.82v20.84c0,5.18-2.17,7.79-6.51,7.79h-3.85v-3.05h2.83c1.9,0,3.14-.62,3.76-1.86a9.54,9.54,0,0,0,.66-4.25V565.82Z" transform="translate(-139.13 -180.39)" fill="#1b75bc"/><rect x="312.95" y="385.42" width="3.1" height="28.63" fill="#1b75bc"/><path d="M144.47,623.34l-1.15,3.1h-3l5.74-14.78h2.5l5.66,14.78h-3.1l-1.17-3.1ZM149,620.6l-1.75-4.76-1.79,4.76Z" transform="translate(-139.13 -180.39)" fill="#be1e2d"/><path d="M157.15,616.16a4.79,4.79,0,0,1,1.56-.88,6.11,6.11,0,0,1,1.93-.28,5.83,5.83,0,0,1,2.1.38,5.23,5.23,0,0,1,1.75,1.1,5.75,5.75,0,0,1,1.4,2,5.91,5.91,0,0,1,.49,2.38,6,6,0,0,1-.54,2.53,6,6,0,0,1-1.55,2.07,5.23,5.23,0,0,1-1.68,1,5.83,5.83,0,0,1-2,.34,5.54,5.54,0,0,1-1.85-.3,5.64,5.64,0,0,1-1.62-.91v.91h-2.56V611.66h2.56Zm.1,4.74a3.21,3.21,0,0,0,.9,2.31,2.91,2.91,0,0,0,2.18.94,3.29,3.29,0,0,0,2.41-.94,3.16,3.16,0,0,0,1-2.35,3.22,3.22,0,0,0-.95-2.33,3.08,3.08,0,0,0-2.29-1,3,3,0,0,0-2.28,1,3.3,3.3,0,0,0-.92,2.38" transform="translate(-139.13 -180.39)" fill="#be1e2d"/><path d="M175.42,626.44v-1.21a3.72,3.72,0,0,1-1.31,1.13,3.68,3.68,0,0,1-1.68.37,4.06,4.06,0,0,1-3.23-1.29,5.46,5.46,0,0,1-1.13-3.71v-6.47h2.63v5a6.4,6.4,0,0,0,.52,3.1,1.94,1.94,0,0,0,1.79.83,2,2,0,0,0,1.86-.93,6.51,6.51,0,0,0,.56-3.17v-4.84H178v11.17Z" transform="translate(-139.13 -180.39)" fill="#be1e2d"/><path d="M191.43,626.44h-5V611.66h4.94a10.39,10.39,0,0,1,3.22.41,5.79,5.79,0,0,1,2.19,1.36,6.59,6.59,0,0,1,1.58,2.46,9.2,9.2,0,0,1,.54,3.24,8.32,8.32,0,0,1-.75,3.6,6.68,6.68,0,0,1-2.18,2.62,5.15,5.15,0,0,1-1.82.85,11.48,11.48,0,0,1-2.7.25m-.18-2.54a4.73,4.73,0,0,0,3.54-1.18,5.14,5.14,0,0,0,1.14-3.68,4.93,4.93,0,0,0-1.24-3.58,4.62,4.62,0,0,0-3.48-1.28h-1.89v9.73Z" transform="translate(-139.13 -180.39)" fill="#be1e2d"/><path d="M203.13,611.66v4.88a3.67,3.67,0,0,1,1.3-1.13,3.72,3.72,0,0,1,1.68-.36,4,4,0,0,1,3.21,1.28,5.47,5.47,0,0,1,1.12,3.7v6.41h-2.6v-4.92a6.45,6.45,0,0,0-.51-3.11,2,2,0,0,0-1.79-.82,2,2,0,0,0-1.87.92,6.35,6.35,0,0,0-.57,3.15v4.78h-2.51V611.66Z" transform="translate(-139.13 -180.39)" fill="#be1e2d"/><path d="M221.31,626.44v-1.37A2.87,2.87,0,0,1,220,626.3a5.12,5.12,0,0,1-2.17.4,5.57,5.57,0,0,1-4.14-1.69,5.76,5.76,0,0,1-1.66-4.2,6,6,0,0,1,.42-2.23,5.62,5.62,0,0,1,1.19-1.86,5.33,5.33,0,0,1,1.85-1.3,5.88,5.88,0,0,1,2.28-.42,5,5,0,0,1,2.1.41,3.34,3.34,0,0,1,1.42,1.23v-1.35h2.54v11.17Zm-6.62-5.68a3.22,3.22,0,0,0,.94,2.36,3.1,3.1,0,0,0,2.29,1,2.94,2.94,0,0,0,2.16-1,3.09,3.09,0,0,0,.93-2.23,3.27,3.27,0,0,0-.94-2.34,3,3,0,0,0-2.2-1,3.18,3.18,0,0,0-3.19,3.2" transform="translate(-139.13 -180.39)" fill="#be1e2d"/><path d="M228.47,616.16a4.79,4.79,0,0,1,1.56-.88A6.11,6.11,0,0,1,232,615a5.83,5.83,0,0,1,2.1.38,5.23,5.23,0,0,1,1.75,1.1,5.75,5.75,0,0,1,1.4,2,5.91,5.91,0,0,1,.49,2.38,6,6,0,0,1-.54,2.53,6,6,0,0,1-1.55,2.07,5.23,5.23,0,0,1-1.68,1,5.83,5.83,0,0,1-2,.34,5.54,5.54,0,0,1-1.85-.3,5.64,5.64,0,0,1-1.62-.91v.91h-2.56V611.66h2.56Zm.1,4.74a3.21,3.21,0,0,0,.9,2.31,2.91,2.91,0,0,0,2.18.94,3.29,3.29,0,0,0,2.41-.94,3.16,3.16,0,0,0,1-2.35,3.22,3.22,0,0,0-.95-2.33,3.08,3.08,0,0,0-2.29-1,3,3,0,0,0-2.28,1,3.3,3.3,0,0,0-.92,2.38" transform="translate(-139.13 -180.39)" fill="#be1e2d"/><path d="M242,614.13H239.5v-2.48H242Zm-2.54,1.14H242v11.17H239.5Z" transform="translate(-139.13 -180.39)" fill="#be1e2d"/><path d="M250.39,611.66h1.45V621a11,11,0,0,0,.09,1.62,3.36,3.36,0,0,0,.29,1,3,3,0,0,0,1.16,1.32,3.21,3.21,0,0,0,1.73.48,2.82,2.82,0,0,0,2.48-1.14,6.23,6.23,0,0,0,.8-3.54v-9h1.43v9.4a6.73,6.73,0,0,1-1.14,4.29,4.2,4.2,0,0,1-3.47,1.41,4.52,4.52,0,0,1-3.65-1.38,6.6,6.6,0,0,1-1.17-4.32Z" transform="translate(-139.13 -180.39)" fill="#be1e2d"/><path d="M262.14,615.27h1.39v1.27a4.12,4.12,0,0,1,1.53-1.13,5.51,5.51,0,0,1,4.17.09,3.65,3.65,0,0,1,1.52,1.31,4.1,4.1,0,0,1,.55,1.41,12.58,12.58,0,0,1,.17,2.38v5.84h-1.41v-6.25a4.42,4.42,0,0,0-.76-2.87,3,3,0,0,0-2.42-.89,3.59,3.59,0,0,0-1.71.39,2.88,2.88,0,0,0-1.16,1.12,3.19,3.19,0,0,0-.37,1,13,13,0,0,0-.11,2v5.43h-1.39Z" transform="translate(-139.13 -180.39)" fill="#be1e2d"/><path d="M275.2,614h-1.43v-2.3h1.43Zm-1.43,1.31h1.43v11.17h-1.43Z" transform="translate(-139.13 -180.39)" fill="#be1e2d"/><polygon points="139.36 446.05 139.36 436.32 137.24 436.32 137.24 434.88 139.36 434.88 139.36 431.26 140.79 431.26 140.79 434.88 142.91 434.88 142.91 436.32 140.79 436.32 140.79 446.05 139.36 446.05" fill="#be1e2d"/><path d="M294.14,621.31H284.06a4.33,4.33,0,0,0,1.32,2.95,4.15,4.15,0,0,0,3,1.12,4.07,4.07,0,0,0,2.26-.65,4.28,4.28,0,0,0,1.55-1.82h1.63a6.4,6.4,0,0,1-2.17,2.85,5.44,5.44,0,0,1-3.23,1,5.52,5.52,0,0,1-4.12-1.74,6.11,6.11,0,0,1,0-8.39,5.69,5.69,0,0,1,4.22-1.67,5.32,5.32,0,0,1,4.11,1.73,6.41,6.41,0,0,1,1.59,4.51Zm-1.58-1.25a5,5,0,0,0-1.49-2.8,4.17,4.17,0,0,0-2.83-.94,4,4,0,0,0-2.75,1,4.39,4.39,0,0,0-1.38,2.73Z" transform="translate(-139.13 -180.39)" fill="#be1e2d"/><path d="M305.18,617v-5.38h1.44v14.78h-1.44v-1.69a5.17,5.17,0,0,1-1.87,1.46,5.51,5.51,0,0,1-2.37.52,5.45,5.45,0,0,1-4.07-1.71,5.78,5.78,0,0,1-1.66-4.18,5.7,5.7,0,0,1,1.64-4.14,5.47,5.47,0,0,1,4.09-1.68,5.54,5.54,0,0,1,2.4.51,5,5,0,0,1,1.83,1.5m0,3.93a4.6,4.6,0,0,0-1.27-3.26,3.94,3.94,0,0,0-3-1.35,4.08,4.08,0,0,0-3,1.28,4.32,4.32,0,0,0-1.26,3.14,4.59,4.59,0,0,0,1.27,3.29A4.07,4.07,0,0,0,301,625.4a3.93,3.93,0,0,0,2.92-1.33,4.36,4.36,0,0,0,1.27-3.11" transform="translate(-139.13 -180.39)" fill="#be1e2d"/><path d="M316.21,613.11v13.33h-1.43V611.66h4a9.06,9.06,0,0,1,2.11.2,4.24,4.24,0,0,1,2.84,2.31,4.88,4.88,0,0,1,.51,2.19,4.49,4.49,0,0,1-1,3,3.53,3.53,0,0,1-2.55,1.35l3.57,5.78h-1.73l-4.39-7.13h1.4a3.2,3.2,0,0,0,2.28-.82,2.76,2.76,0,0,0,.88-2.11,3.64,3.64,0,0,0-.27-1.42,3.15,3.15,0,0,0-.8-1.12,2.55,2.55,0,0,0-1.05-.56,9.65,9.65,0,0,0-2.19-.17Z" transform="translate(-139.13 -180.39)" fill="#be1e2d"/><path d="M336.91,621.31H326.83a4.33,4.33,0,0,0,1.32,2.95,4.15,4.15,0,0,0,3,1.12,4.07,4.07,0,0,0,2.26-.65,4.3,4.3,0,0,0,1.55-1.82h1.62a6.39,6.39,0,0,1-2.17,2.85,5.43,5.43,0,0,1-3.23,1A5.52,5.52,0,0,1,327,625a6.11,6.11,0,0,1,0-8.39,5.69,5.69,0,0,1,4.22-1.67,5.32,5.32,0,0,1,4.11,1.73,6.41,6.41,0,0,1,1.59,4.51Zm-1.58-1.25a5,5,0,0,0-1.49-2.8,4.17,4.17,0,0,0-2.83-.94,4,4,0,0,0-2.75,1,4.4,4.4,0,0,0-1.38,2.73Z" transform="translate(-139.13 -180.39)" fill="#be1e2d"/><path d="M348,624.67a4.57,4.57,0,0,1-1.81,1.51,5.62,5.62,0,0,1-2.46.55,5.47,5.47,0,0,1-4.09-1.68,6.09,6.09,0,0,1,0-8.34,5.64,5.64,0,0,1,4.18-1.69,5.35,5.35,0,0,1,2.37.52,4.73,4.73,0,0,1,1.79,1.51v-1.79h1.4v11.17H348Zm0-3.89a4.34,4.34,0,0,0-1.27-3.1,3.94,3.94,0,0,0-2.92-1.32,4.08,4.08,0,0,0-3.06,1.32,4.58,4.58,0,0,0-1.26,3.29,4.33,4.33,0,0,0,1.26,3.15,4.09,4.09,0,0,0,3,1.29,3.93,3.93,0,0,0,3-1.35,4.62,4.62,0,0,0,1.27-3.27" transform="translate(-139.13 -180.39)" fill="#be1e2d"/><rect x="212.54" y="431.26" width="1.43" height="14.78" fill="#be1e2d"/><polygon points="223.84 437.89 230.06 437.89 230.06 439.36 223.84 439.36 223.84 444.62 230.06 444.62 230.06 446.05 222.38 446.05 222.38 431.26 230.06 431.26 230.06 432.71 223.84 432.71 223.84 437.89" fill="#be1e2d"/><path d="M371,622.93h1.47v0a2.54,2.54,0,0,0,.6,1.73,1.89,1.89,0,0,0,1.48.69,2,2,0,0,0,1.4-.53,1.76,1.76,0,0,0,.56-1.33,1.84,1.84,0,0,0-.44-1.29,4.07,4.07,0,0,0-1.6-.91,5.75,5.75,0,0,1-2.43-1.35,2.82,2.82,0,0,1-.57-1.85,3,3,0,0,1,.95-2.22,3.19,3.19,0,0,1,2.3-.91,3.14,3.14,0,0,1,2.27.81,3.2,3.2,0,0,1,.9,2.26h-1.53a1.79,1.79,0,0,0-.5-1.23,1.7,1.7,0,0,0-1.23-.44,1.58,1.58,0,0,0-1.17.47A1.6,1.6,0,0,0,373,618a1.68,1.68,0,0,0,.19.84,1.77,1.77,0,0,0,.64.61A5.15,5.15,0,0,0,375,620c.52.15.86.27,1,.34a3,3,0,0,1,2,3.08,3.13,3.13,0,0,1-1,2.39,3.58,3.58,0,0,1-2.55.95,3.28,3.28,0,0,1-2.53-1,4.11,4.11,0,0,1-1-2.78" transform="translate(-139.13 -180.39)" fill="#be1e2d"/><polygon points="241.66 446.05 241.66 436.32 239.54 436.32 239.54 434.88 241.66 434.88 241.66 431.26 243.09 431.26 243.09 434.88 245.22 434.88 245.22 436.32 243.09 436.32 243.09 446.05 241.66 446.05" fill="#be1e2d"/><path d="M394.92,624.67a4.55,4.55,0,0,1-1.81,1.51,5.61,5.61,0,0,1-2.46.55,5.47,5.47,0,0,1-4.09-1.68,6.09,6.09,0,0,1,0-8.34,5.64,5.64,0,0,1,4.18-1.69,5.33,5.33,0,0,1,2.36.52,4.73,4.73,0,0,1,1.79,1.51v-1.79h1.4v11.17h-1.4Zm0-3.89a4.34,4.34,0,0,0-1.27-3.1,3.94,3.94,0,0,0-2.92-1.32,4.07,4.07,0,0,0-3.06,1.32,4.57,4.57,0,0,0-1.26,3.29,4.33,4.33,0,0,0,1.26,3.15,4.09,4.09,0,0,0,3,1.29,3.94,3.94,0,0,0,3-1.35,4.62,4.62,0,0,0,1.26-3.27" transform="translate(-139.13 -180.39)" fill="#be1e2d"/><polygon points="260.44 446.05 260.44 436.32 258.31 436.32 258.31 434.88 260.44 434.88 260.44 431.26 261.87 431.26 261.87 434.88 263.99 434.88 263.99 436.32 261.87 436.32 261.87 446.05 260.44 446.05" fill="#be1e2d"/><path d="M415.22,621.31H405.14a4.32,4.32,0,0,0,1.32,2.95,4.14,4.14,0,0,0,3,1.12,4.07,4.07,0,0,0,2.27-.65,4.29,4.29,0,0,0,1.55-1.82h1.63a6.42,6.42,0,0,1-2.17,2.85,5.44,5.44,0,0,1-3.23,1,5.52,5.52,0,0,1-4.12-1.74,6.11,6.11,0,0,1,0-8.39,5.68,5.68,0,0,1,4.22-1.67,5.31,5.31,0,0,1,4.11,1.73,6.4,6.4,0,0,1,1.59,4.51Zm-1.58-1.25a5,5,0,0,0-1.49-2.8,4.17,4.17,0,0,0-2.83-.94,4,4,0,0,0-2.75,1,4.39,4.39,0,0,0-1.38,2.73Z" transform="translate(-139.13 -180.39)" fill="#be1e2d"/><path d="M434.74,615.48a6.55,6.55,0,0,0-2.22-2,5.9,5.9,0,0,0-2.8-.65,5.64,5.64,0,0,0-4.22,1.83,6.06,6.06,0,0,0-1.75,4.35,6.33,6.33,0,0,0,1.74,4.52,5.61,5.61,0,0,0,4.23,1.84,6,6,0,0,0,2.77-.64,6.09,6.09,0,0,0,2.15-1.91h1.73a7.43,7.43,0,0,1-2.72,2.92,7.7,7.7,0,0,1-9.27-1.19,7.62,7.62,0,0,1-2.18-5.55,7.48,7.48,0,0,1,.59-2.94,7.7,7.7,0,0,1,1.73-2.51,7.24,7.24,0,0,1,2.37-1.6,7.81,7.81,0,0,1,6.82.53,7.59,7.59,0,0,1,2.79,3Z" transform="translate(-139.13 -180.39)" fill="#be1e2d"/><path d="M437.76,620.87a5.84,5.84,0,0,1,1.69-4.2,5.36,5.36,0,0,1,4-1.75,5.85,5.85,0,0,1,5.85,5.81,6,6,0,0,1-1.68,4.26,5.39,5.39,0,0,1-4.06,1.77,5.5,5.5,0,0,1-4.11-1.73,5.76,5.76,0,0,1-1.68-4.16m1.5,0a4.53,4.53,0,0,0,1.23,3.23,4,4,0,0,0,3.05,1.3,4,4,0,0,0,3-1.3,4.59,4.59,0,0,0,1.22-3.25,4.49,4.49,0,0,0-1.23-3.25,4.18,4.18,0,0,0-3.13-1.27,3.87,3.87,0,0,0-2.93,1.31,4.56,4.56,0,0,0-1.22,3.24" transform="translate(-139.13 -180.39)" fill="#be1e2d"/><rect x="312.16" y="443.35" width="1.45" height="2.7" fill="#be1e2d"/></g></svg>