<?xml version="1.0" encoding="utf-8"?>
<!-- Generator: Adobe Illustrator 16.0.0, SVG Export Plug-In . SVG Version: 6.00 Build 0)  -->
<!DOCTYPE svg PUBLIC "-//W3C//DTD SVG 1.1//EN" "http://www.w3.org/Graphics/SVG/1.1/DTD/svg11.dtd">
<svg version="1.1" id="Layer_1" xmlns="http://www.w3.org/2000/svg" xmlns:xlink="http://www.w3.org/1999/xlink" x="0px" y="0px"
	 width="595.276px" height="841.89px" viewBox="0 0 595.276 841.89" enable-background="new 0 0 595.276 841.89"
	 xml:space="preserve">
<g>
	<defs>
		<rect id="SVGID_1_" width="595.276" height="841.89"/>
	</defs>
	<clipPath id="SVGID_2_">
		<use xlink:href="#SVGID_1_"  overflow="visible"/>
	</clipPath>
	<path clip-path="url(#SVGID_2_)" fill="#FFFFFF" d="M440.9,322.516c0,4.431-3.593,8.022-8.022,8.022
		c-4.431,0-8.022-3.591-8.022-8.022s3.592-8.022,8.022-8.022C437.308,314.494,440.9,318.084,440.9,322.516"/>
	<path clip-path="url(#SVGID_2_)" fill="#FFFFFF" d="M365.746,277.955c0,4.431-3.593,8.022-8.022,8.022
		c-4.431,0-8.022-3.591-8.022-8.022s3.592-8.022,8.022-8.022C362.153,269.933,365.746,273.524,365.746,277.955"/>
	<path clip-path="url(#SVGID_2_)" fill="#FFFFFF" d="M332.99,364.083c0,4.431-3.593,8.022-8.022,8.022
		c-4.431,0-8.022-3.591-8.022-8.022c0-4.431,3.592-8.023,8.022-8.023C329.397,356.061,332.99,359.652,332.99,364.083"/>
	<path clip-path="url(#SVGID_2_)" fill="#FFFFFF" d="M310.877,439.903c0,4.431-3.593,8.021-8.022,8.021
		c-4.432,0-8.024-3.591-8.024-8.021s3.592-8.022,8.024-8.022C307.284,431.88,310.877,435.472,310.877,439.903"/>
	<path clip-path="url(#SVGID_2_)" fill="#FFFFFF" d="M293.917,439.903c0,4.431-3.592,8.021-8.022,8.021
		c-4.431,0-8.023-3.591-8.023-8.021s3.592-8.022,8.023-8.022C290.325,431.88,293.917,435.472,293.917,439.903"/>
	<path clip-path="url(#SVGID_2_)" fill="#FFFFFF" d="M379.937,253.262c0.172-1.775,0.794-3.508,1.939-4.874
		c1.414-1.683,3.65-2.908,6.607-0.043c5.376,5.21,30.648,51.71,28.432,100.261c-2.217,48.551-19.065,109.739-85.13,130.578
		c0,0,73.104-32.313,75.93-117.609c1.864-56.254-11.79-72.077-14.584-75.677c-0.605-0.782-1.533-1.291-2.522-1.255
		c-0.443,0.016-0.905,0.134-1.294,0.448c-1.164,0.942-6.816,4.6-8.867-1.33C378.457,278.008,378.084,272.412,379.937,253.262"/>
	<path clip-path="url(#SVGID_2_)" fill="#FFFFFF" d="M424.748,302.1c0.73-0.485,1.526-0.863,2.369-1.11
		c1.49-0.438,3.705-0.735,5.262,0.617c2.55,2.217,8.978,6.207,13.522,2.217c4.545-3.991,5.433-13.302,5.542-17.292
		c0.112-3.991,1.663-10.42-8.978-8.203c-10.643,2.217-30.65,13.745-58.749,60.467l-15.962,32.922c0,0-6.402-15.131-14.133-14.632
		c-7.731,0.499-12.305,5.487-13.303,17.458c-0.998,11.972,0.499,21.366,10.726,19.786c10.225-1.579,9.227-2.161,9.227-2.161
		s-11.638,71.413-61.187,65.178c-48.222-6.068-42.925-55.701-41.429-83.8c0,0-12.11,36.579,0.028,70.333
		c12.137,33.753,58.259,37.171,79.811,18.039c16.294-14.465,26.603-38.324,32.755-75.568c0,0,1.995-0.666,14.133-25.772
		C396.345,335.834,407.605,313.459,424.748,302.1"/>
	<path clip-path="url(#SVGID_2_)" fill="#FFFFFF" d="M370.554,240.78c0,0,3.74-4.655,3.906,0.083
		c0.167,4.739-2.409,11.889-12.803,17.292c-10.391,5.404-16.127,14.216-16.127,14.216s-1.081-6.484,7.232-15.297
		c0,0-14.313,0.791-9.562-16.46c4.269-15.491,16.237-8.528,16.877-4.074c0.582,4.046-1.413,8.896-5.652,5.321
		c0,0-2.245-2.183-4.157,0.166c-2.916,3.583-1.33,7.981,1.829,8.48S362.656,252.086,370.554,240.78"/>
	<path clip-path="url(#SVGID_2_)" fill="#FFFFFF" d="M292.573,302.716c-0.307-2.837-0.037-5.708,0.849-8.42
		c0.862-2.641,2.33-5.833,4.804-8.54c5.321-5.819,9.562-0.083,9.562,3.575c0,3.658-3.159,23.611-21.532,35
		c0,0,12.968-11.722,13.966-21.782c0.998-10.059-2.91-4.988-3.658-3.99C295.815,299.557,292.573,302.716,292.573,302.716"/>
	<path clip-path="url(#SVGID_2_)" fill="#FFFFFF" d="M370.359,289.747c-9.865,0.665-20.396,13.745-20.396,13.745
		c-1.884-21.837-8.757-31.813-14.299-41.014c-5.543-9.2-13.302,0.333-13.302,0.333s-1.886,1.331-3.437,9.09
		c-1.552,7.759-0.332,11.749,6.983,11.528c7.315-0.222,10.197,4.766,12.969,18.068c2.771,13.301,0.887,36.247-2.882,36.912
		c-3.77,0.665-5.433-14.189-9.312-27.933c-3.879-13.746-14.631,3.436-16.183,8.424c-1.553,4.988,0.11,6.54,5.209,7.648
		c5.099,1.109,6.208,6.651,3.658,9.755s-8.313-0.333-11.86-4.212c-3.547-3.88-9.644-6.984-19.177,0
		c-9.533,6.983-14.41,22.945-15.519,29.817c-1.108,6.873,3.215,16.738,14.41,17.403c11.196,0.666,12.969,2.55,12.969,2.55
		c9.533,6.207,8.535,14.632,4.323,22.28c-4.211,7.648-24.497,16.073-38.242,4.988c-13.745-11.085-5.763-55.534-5.763-55.534
		s-7.87,34.362-2.661,57.64c5.209,23.279,39.129,18.955,50.436,4.545c11.307-14.41,8.092-36.69,3.437-45.89
		c-4.656-9.201-16.184-8.204-22.502-9.312c-6.319-1.108-7.981-7.538-4.434-12.082c3.547-4.545,9.977-2.882,12.304-1.996
		c2.328,0.888,5.653,8.979,14.632,7.427c8.979-1.552,13.745-11.084,13.745-11.084c0.776,3.657,3.436,14.521,21.393,9.754
		c25.274-7.648,33.92-36.912,35.582-45.891C384.104,297.728,380.225,289.082,370.359,289.747 M348.745,336.081
		c0,0,0.498-16.405,9.698-25.107c9.2-8.701,12.305-4.101,12.526-0.388C371.19,314.299,371.024,329.485,348.745,336.081"/>
	<path clip-path="url(#SVGID_2_)" fill="#FFFFFF" d="M251.42,235.043c0,0,43.896,0.998,42.399,7.15
		c-1.497,6.152-29.596,97.767-29.596,97.767s8.48-50.713,13.801-70c5.32-19.288,8.978-26.104,1.663-27.934
		C270.375,239.532,251.42,235.043,251.42,235.043"/>
	<path clip-path="url(#SVGID_2_)" fill="#FFFFFF" d="M245.989,226.896l-3.769,209.722l-15.075-197.972c0,0-0.831-4.268,2.577-6.263
		C233.131,230.388,234.572,229.39,245.989,226.896"/>
	<path clip-path="url(#SVGID_2_)" fill="#FFFFFF" d="M206.694,181.338l53.705,9.976l0.998,37.91l7.815-43.896
		C269.212,185.328,220.827,180.007,206.694,181.338"/>
	<path clip-path="url(#SVGID_2_)" fill="#FFFFFF" d="M202.87,184.331l35.804,281.164h-6.596c0,0-31.536-84.521-74.323-31.979
		c0,0,26.271-50.768,61.964-11.195l-44.006-219.644c0,0-0.832-2.882,3.325-6.152c4.156-3.27,20.395-15.629,20.395-15.629
		S202.315,178.456,202.87,184.331"/>
	<path clip-path="url(#SVGID_2_)" fill="#FFFFFF" d="M204.311,378.646l3.436,18.068c0,0-37.466-2.549-51.544,25.938
		c-8.646,20.95,14.631,53.429,14.631,53.429s-38.242-21.948-23.942-74.822c15.629-40.571,54.869-43.231,54.869-43.231l2.107,17.181
		c0,0-27.269-2.992-46.224,27.269C157.644,402.478,179.813,376.429,204.311,378.646"/>
	<path clip-path="url(#SVGID_2_)" fill="#FFFFFF" d="M185.092,535.382v5.843c-6.304,0-8.097-0.974-10.456-4.511
		c-1.639,7.996-8.508,13.019-16.862,13.019c-9.842,0-17.632-7.688-17.632-17.786v-5.739h5.74v5.073
		c0,7.945,4.614,12.916,12.045,12.916c6.663,0,11.687-4.407,11.687-9.635c0-3.178-1.897-5.433-5.178-5.433
		c-0.306,0-0.614,0-0.922,0.051v-5.228h2.255c4.511,0,7.894,2.05,10.149,6.099c2.101,3.845,4.1,5.331,7.022,5.331H185.092z
		 M155.774,561.06h-5.637v-5.688h5.637V561.06z M165.462,561.06h-5.638v-5.688h5.638V561.06z"/>
	<path clip-path="url(#SVGID_2_)" fill="#FFFFFF" d="M207.291,541.225h-23.68v-5.843h5.331c1.691,0,2.818-0.564,3.434-1.743
		c0.41-0.769,0.615-2.102,0.615-3.896v-11.788h5.689v11.481c0,3.023-0.41,4.971-1.23,5.945h9.841V541.225z M198.629,552.501h-5.638
		v-5.741h5.638V552.501z"/>
	<path clip-path="url(#SVGID_2_)" fill="#FFFFFF" d="M248.194,541.225h-42.489v-5.843h9.43v-27.216h5.638l-0.614,18.554
		c4.715-6.1,9.635-8.867,15.017-8.867c8.867,0,13.274,6.048,13.274,18.042C248.45,537.586,248.348,539.328,248.194,541.225
		 M242.556,535.382v-1.642c0-6.508-2.921-10.762-7.893-10.762c-5.791,0-11.583,5.125-15.069,12.403H242.556z M236.816,513.24h-5.638
		v-5.688h5.638V513.24z"/>
	<path clip-path="url(#SVGID_2_)" fill="#FFFFFF" d="M282.437,541.225h-6.97c-0.769,5.637-4.511,8.457-11.174,8.457v-4.511
		c2.974,0,4.869-1.229,5.69-3.946h-5.485c-6.202,0-11.224-5.177-11.224-11.942s4.971-11.379,11.481-11.379
		c6.252,0,10.66,4.818,10.66,11.533v5.945h7.022V541.225z M269.674,535.382v-7.022c-0.308-3.023-2.051-5.176-5.023-5.176
		c-3.383,0-5.536,2.357-5.536,5.791c0,3.537,2.41,6.407,5.485,6.407H269.674z"/>
	<path clip-path="url(#SVGID_2_)" fill="#FFFFFF" d="M295.612,531.947c0,6.203-2.87,9.278-8.559,9.278h-5.536v-5.843h4.357
		c1.896,0,3.076-0.564,3.638-1.691c0.257-0.616,0.411-1.846,0.411-3.69v-12.045h5.689V531.947z M295.561,552.449h-5.587v-5.739
		h5.587V552.449z"/>
	<path clip-path="url(#SVGID_2_)" fill="#FFFFFF" d="M308.12,505.5h-8.867v-2.357h2.05c-0.307-0.974-0.461-1.537-0.461-1.794
		c0-2.409,1.793-4.152,3.998-4.152c1.436,0,2.511,0.77,3.229,2.256l-1.847,0.974c-0.152-0.77-0.666-1.127-1.435-1.127
		c-1.076,0-1.742,0.974-1.742,1.947c0,0.87,0.307,1.537,0.922,1.896h4.152V505.5z M306.685,541.225h-5.688v-33.11h5.688V541.225z"/>
	<path clip-path="url(#SVGID_2_)" fill="#FFFFFF" d="M354.917,541.225h-6.202c-4.459,0-8.098-3.025-9.277-7.586
		c-1.794,2.563-3.997,3.845-6.56,3.845c-6.561,0-10.611-4.921-10.611-12.045c0-7.688,4.051-12.455,10.611-12.455h12.659v16.248
		c0,3.997,1.896,6.15,5.741,6.15h3.639V541.225z M339.591,524.875v-7.432h-5.176c-3.997,0-6.458,3.178-6.458,7.944
		c0,3.947,2.204,7.33,5.638,7.33C337.337,532.717,339.591,529.232,339.591,524.875 M335.388,508.833h-5.638v-5.74h5.638V508.833z
		 M345.076,508.833h-5.639v-5.74h5.639V508.833z"/>
	<path clip-path="url(#SVGID_2_)" fill="#FFFFFF" d="M387.672,537.637v3.588h-34.289v-5.843h28.139c0-3.179-0.923-5.895-2.768-8.149
		c-2.153-2.615-5.126-3.896-8.867-3.896h-11.84l10.097-15.171h6.817l-6.921,9.788h2.513c3.793,0,7.072,0.924,9.841,2.82
		C385.263,524.003,387.672,529.59,387.672,537.637"/>
	<path clip-path="url(#SVGID_2_)" fill="#FFFFFF" d="M413.148,541.225h-9.175c-0.871,5.483-5.535,8.508-12.507,8.508v-4.92
		c4.768,0,7.125-2.358,7.125-7.278v-19.58h5.741v17.428h8.815V541.225z"/>
	<path clip-path="url(#SVGID_2_)" fill="#FFFFFF" d="M411.357,535.382h4.201c2.923,0,4.358-1.999,4.358-6.048v-11.379h5.791v11.174
		c0,3.023-0.308,4.972-0.922,5.944v0.309h5.33c2.922,0,4.355-1.896,4.355-5.689v-11.737h5.792v11.174
		c0,3.331-0.41,5.433-1.178,6.253h5.587c2.92,0,4.356-1.896,4.356-5.639v-11.788h5.791v11.071c0,7.379-4.101,12.198-9.943,12.198
		h-33.52V535.382z M429.655,507.551h5.586v5.688h-5.586V507.551z M434.524,499.453h5.638v5.739h-5.638V499.453z M439.341,507.551
		h5.587v5.688h-5.587V507.551z"/>
	<path clip-path="url(#SVGID_2_)" fill="#FFFFFF" d="M171.919,574.358v12.301c0,5.179-2.168,7.788-6.46,7.788h-13.585
		c-8.496,0-12.744-4.291-12.744-12.876v-7.257h3.097v7.257c0,6.594,3.142,9.779,9.381,9.779h12.832c3.143,0,4.381-1.194,4.381-6.063
		v-10.93H171.919z M154.352,574.314h-3.143v-3.762h3.143V574.314z M160.149,574.314h-3.143v-3.762h3.143V574.314z"/>
	<rect x="177.85" y="565.817" clip-path="url(#SVGID_2_)" fill="#FFFFFF" width="3.098" height="28.63"/>
	<path clip-path="url(#SVGID_2_)" fill="#FFFFFF" d="M194.045,574.358v16.328c0,7.213-2.787,10.665-9.293,11.019v-2.965
		c4.115,0,6.195-2.257,6.195-7.478v-16.904H194.045z"/>
	<path clip-path="url(#SVGID_2_)" fill="#FFFFFF" d="M209.709,594.448h-3.495c-1.593,0-2.921-0.575-4.026-1.682
		c-1.284-1.239-1.904-3.009-1.904-5.354v-21.594h3.187v19.734c0,2.037,0.309,3.497,0.884,4.382c0.487,0.752,1.329,1.195,2.522,1.371
		c0.311,0.045,0.664,0.045,2.832,0.045V594.448z"/>
	<path clip-path="url(#SVGID_2_)" fill="#FFFFFF" d="M237.809,594.447h-4.381c-2.478,0-4.16-0.088-5.088-0.265
		c-1.638-0.31-3.364-1.018-5.267-2.124c-1.902,1.106-3.672,1.814-5.31,2.124c-0.928,0.177-2.61,0.265-5.132,0.265h-4.381v-3.097
		h6.991c1.638,0,3.142-0.354,4.514-1.062c-1.992-0.93-3.584-2.302-4.691-4.115c-1.061-1.727-1.593-3.585-1.593-5.576
		c0-2.523,0.797-4.647,2.434-6.372c1.769-1.903,4.16-2.832,7.125-2.832c3.008,0,5.398,0.929,7.168,2.832
		c1.594,1.725,2.39,3.849,2.39,6.372c0,1.991-0.532,3.85-1.593,5.576c-1.107,1.813-2.699,3.186-4.692,4.115
		c1.372,0.708,2.877,1.062,4.514,1.062h6.992V594.447z M223.073,588.43c1.992-0.841,3.496-2.036,4.602-3.629
		c1.019-1.46,1.549-3.009,1.549-4.646c0-1.726-0.53-3.142-1.592-4.249c-1.107-1.193-2.656-1.813-4.602-1.813
		c-3.851,0-6.151,2.655-6.151,6.019c0,1.637,0.487,3.186,1.504,4.646C219.489,586.394,221.083,587.589,223.073,588.43
		 M221.88,567.676h-3.143v-3.762h3.143V567.676z M227.675,567.676h-3.142v-3.762h3.142V567.676z"/>
	<path clip-path="url(#SVGID_2_)" fill="#FFFFFF" d="M268.653,594.448h-8.586c-2.699,0-4.911-1.15-6.592-3.451
		c-2.7,2.301-6.019,3.451-9.956,3.451h-6.948v-3.098h6.859c1.592,0,2.965-0.177,4.071-0.576c1.105-0.397,2.434-1.149,3.937-2.212
		c-2.433-3.673-5.574-6.283-9.468-7.789l-0.045-3.494c3.629-2.346,7.302-3.54,11.062-3.54c4.248,0,8.143,1.416,11.639,4.247
		c-1.106,2.125-2.035,3.762-2.832,4.868c-1.549,2.168-3.496,4.204-5.842,6.019c1.019,1.237,2.08,1.991,3.143,2.257
		c0.486,0.133,1.681,0.221,3.584,0.221h5.974V594.448z M261.042,578.96c-1.903-0.93-3.054-1.461-3.363-1.594
		c-1.505-0.575-3.01-0.842-4.514-0.842c-2.611,0-5.398,0.842-8.451,2.523c1.99,0.753,3.672,1.77,5.088,2.965
		c1.239,1.018,2.566,2.566,4.027,4.558C257.015,584.402,259.404,581.88,261.042,578.96"/>
	<path clip-path="url(#SVGID_2_)" fill="#FFFFFF" d="M283.123,594.448h-15.267v-3.054h2.832c1.903,0,3.142-0.619,3.762-1.813
		c0.442-0.841,0.664-2.257,0.664-4.293v-19.47h3.097v20.842c0,1.902-0.265,3.496-0.841,4.69h5.753V594.448z"/>
	<path clip-path="url(#SVGID_2_)" fill="#FFFFFF" d="M292.725,565.818v20.842c0,5.178-2.168,7.788-6.506,7.788h-3.849v-3.054h2.832
		c1.903,0,3.142-0.619,3.761-1.858c0.443-0.796,0.664-2.212,0.664-4.248v-19.47H292.725z"/>
	<path clip-path="url(#SVGID_2_)" fill="#FFFFFF" d="M330.692,584.182c0,2.92-0.843,5.353-2.479,7.257
		c-1.725,1.991-4.071,3.008-6.948,3.008c-2.965,0-5.265-0.973-6.991-2.92c-1.638-1.813-2.477-4.248-2.477-7.301
		c0-2.965,0.839-5.354,2.566-7.257c1.725-1.992,4.069-2.965,6.946-2.965c2.966,0,5.267,0.973,6.992,2.92
		C329.895,578.782,330.692,581.217,330.692,584.182 M327.151,583.917c0-2.08-0.396-3.806-1.193-5.089
		c-1.018-1.462-2.479-2.214-4.471-2.214c-2.123,0-3.718,0.798-4.777,2.391c-0.887,1.372-1.328,3.186-1.328,5.442
		c0,2.08,0.441,3.806,1.328,5.088c1.06,1.55,2.566,2.303,4.556,2.303C325.206,591.837,327.151,589.182,327.151,583.917
		 M320.161,571.172h-3.144v-3.763h3.144V571.172z M325.958,571.172h-3.143v-3.763h3.143V571.172z"/>
	<path clip-path="url(#SVGID_2_)" fill="#FFFFFF" d="M360.606,594.448h-26.595v-3.098h16.373c0-3.938-0.709-7.124-2.17-9.514
		c-1.769-2.876-4.513-4.381-8.185-4.603h-1.195v-2.92c9.337,0,14.25,5.664,14.736,17.036h7.035V594.448z"/>
	<path clip-path="url(#SVGID_2_)" fill="#FFFFFF" d="M394.901,594.448h-35.533v-3.098h26.903c0.046-0.575,0.089-1.106,0.089-1.593
		c0-7.479-3.938-11.771-10.886-11.771c-3.761,0-6.549,1.46-8.319,4.381c-0.441-0.487-1.326-1.372-2.699-2.744
		c2.522-3.142,6.152-4.69,10.974-4.69c8.808,0,14.604,5.841,14.604,15.045v1.372h4.867V594.448z"/>
	<path clip-path="url(#SVGID_2_)" fill="#FFFFFF" d="M409.194,594.447h-15.267v-3.053h2.832c1.903,0,3.144-0.619,3.763-1.813
		c0.441-0.842,0.663-2.258,0.663-4.293v-10.93h3.099v12.301c0,1.903-0.267,3.497-0.842,4.691h5.752V594.447z M398.442,571.172
		h-3.144v-3.763h3.144V571.172z M404.239,571.172h-3.144v-3.763h3.144V571.172z"/>
	<path clip-path="url(#SVGID_2_)" fill="#FFFFFF" d="M436.718,594.448h-6.771c-1.681,2.566-4.16,3.849-7.433,3.849
		c-3.408,0-5.976-1.282-7.612-3.849h-6.548v-3.098h5.22c-0.22-0.929-0.353-1.947-0.353-3.054c0-2.92,0.84-5.31,2.478-7.212
		c1.683-1.903,3.983-2.832,6.858-2.832c2.877,0,5.177,0.973,6.813,2.876c1.55,1.814,2.347,4.204,2.347,7.124
		c0,1.106-0.134,2.124-0.399,3.098h5.399V594.448z M428.089,587.943c0-1.991-0.398-3.584-1.193-4.779
		c-0.93-1.46-2.301-2.168-4.205-2.168c-1.991,0-3.54,0.797-4.557,2.345c-0.843,1.284-1.24,2.965-1.24,5.134
		c0,1.99,0.397,3.628,1.24,4.866c1.017,1.46,2.476,2.169,4.381,2.169C426.231,595.509,428.089,592.988,428.089,587.943"/>
	<path clip-path="url(#SVGID_2_)" fill="#FFFFFF" d="M446.146,565.818v20.842c0,5.178-2.17,7.788-6.506,7.788h-3.85v-3.054h2.832
		c1.902,0,3.143-0.619,3.761-1.858c0.442-0.796,0.664-2.212,0.664-4.248v-19.47H446.146z"/>
	<rect x="452.075" y="565.817" clip-path="url(#SVGID_2_)" fill="#FFFFFF" width="3.098" height="28.63"/>
	<path clip-path="url(#SVGID_2_)" fill="#FFFFFF" d="M144.466,623.342l-1.148,3.097h-2.995l5.736-14.783h2.498l5.656,14.783h-3.097
		l-1.168-3.097H144.466z M148.994,620.601l-1.747-4.762l-1.787,4.762H148.994z"/>
	<path clip-path="url(#SVGID_2_)" fill="#FFFFFF" d="M157.146,616.164c0.481-0.4,1.002-0.692,1.563-0.878
		c0.562-0.187,1.205-0.279,1.93-0.279c0.744,0,1.445,0.125,2.101,0.376c0.656,0.25,1.238,0.616,1.746,1.097
		c0.604,0.555,1.069,1.21,1.397,1.964c0.328,0.755,0.492,1.549,0.492,2.382c0,0.893-0.181,1.737-0.543,2.533
		c-0.361,0.795-0.878,1.483-1.549,2.065c-0.494,0.427-1.052,0.752-1.675,0.975c-0.622,0.224-1.286,0.336-1.989,0.336
		c-0.664,0-1.279-0.101-1.849-0.3c-0.568-0.2-1.11-0.504-1.624-0.909v0.914h-2.558v-14.783h2.558V616.164z M157.249,620.906
		c0,0.907,0.301,1.675,0.903,2.305c0.603,0.629,1.33,0.944,2.183,0.944c0.969,0,1.769-0.313,2.406-0.939s0.955-1.41,0.955-2.351
		c0-0.9-0.316-1.675-0.949-2.325c-0.633-0.649-1.396-0.975-2.29-0.975c-0.907,0-1.669,0.319-2.284,0.96
		C157.557,619.165,157.249,619.958,157.249,620.906"/>
	<path clip-path="url(#SVGID_2_)" fill="#FFFFFF" d="M175.422,626.439v-1.208c-0.379,0.508-0.814,0.885-1.305,1.132
		c-0.49,0.247-1.05,0.371-1.679,0.371c-1.403,0-2.479-0.431-3.23-1.29s-1.127-2.095-1.127-3.706v-6.468h2.63v5.016
		c0,1.509,0.172,2.542,0.518,3.098c0.345,0.555,0.941,0.831,1.787,0.831c0.866,0,1.487-0.311,1.863-0.933
		c0.375-0.623,0.564-1.679,0.564-3.168v-4.844h2.558v11.169H175.422z"/>
	<path clip-path="url(#SVGID_2_)" fill="#FFFFFF" d="M191.435,626.439h-5.026v-14.783h4.945c1.339,0,2.413,0.136,3.217,0.406
		c0.807,0.271,1.537,0.725,2.194,1.359c0.697,0.678,1.225,1.497,1.584,2.458s0.539,2.041,0.539,3.239c0,1.34-0.251,2.54-0.752,3.599
		c-0.501,1.06-1.229,1.932-2.184,2.615c-0.541,0.399-1.146,0.684-1.816,0.853S192.564,626.439,191.435,626.439 M191.251,623.901
		c1.604,0,2.785-0.394,3.544-1.178c0.758-0.785,1.137-2.014,1.137-3.686c0-1.537-0.415-2.731-1.244-3.584
		c-0.83-0.854-1.989-1.28-3.477-1.28h-1.889v9.728H191.251z"/>
	<path clip-path="url(#SVGID_2_)" fill="#FFFFFF" d="M203.13,611.656v4.884c0.379-0.508,0.813-0.883,1.305-1.127
		c0.491-0.244,1.05-0.365,1.68-0.365c1.395,0,2.463,0.428,3.208,1.284c0.745,0.856,1.117,2.09,1.117,3.701v6.406h-2.599v-4.924
		c0-1.53-0.171-2.567-0.513-3.112c-0.342-0.545-0.939-0.817-1.792-0.817c-0.866,0-1.489,0.307-1.868,0.919s-0.568,1.663-0.568,3.152
		v4.782h-2.508v-14.783H203.13z"/>
	<path clip-path="url(#SVGID_2_)" fill="#FFFFFF" d="M221.305,626.439v-1.371c-0.312,0.555-0.75,0.965-1.315,1.229
		c-0.566,0.265-1.288,0.396-2.167,0.396c-1.653,0-3.032-0.563-4.139-1.69c-1.105-1.127-1.66-2.526-1.66-4.198
		c0-0.785,0.139-1.53,0.417-2.234c0.277-0.703,0.673-1.324,1.188-1.857c0.555-0.59,1.17-1.024,1.848-1.305
		c0.676-0.281,1.437-0.422,2.284-0.422c0.812,0,1.511,0.135,2.097,0.406c0.586,0.27,1.057,0.681,1.416,1.228v-1.35h2.539v11.169
		H221.305z M214.684,620.763c0,0.94,0.313,1.728,0.939,2.359c0.627,0.635,1.39,0.951,2.29,0.951c0.82,0,1.541-0.318,2.164-0.956
		c0.622-0.635,0.933-1.38,0.933-2.232c0-0.907-0.313-1.688-0.939-2.341c-0.626-0.652-1.36-0.979-2.198-0.979
		c-0.88,0-1.631,0.31-2.254,0.928C214.996,619.114,214.684,619.869,214.684,620.763"/>
	<path clip-path="url(#SVGID_2_)" fill="#FFFFFF" d="M228.473,616.164c0.481-0.4,1.002-0.692,1.563-0.878
		c0.562-0.187,1.205-0.279,1.93-0.279c0.744,0,1.445,0.125,2.101,0.376c0.656,0.25,1.238,0.616,1.746,1.097
		c0.604,0.555,1.069,1.21,1.397,1.964c0.328,0.755,0.492,1.549,0.492,2.382c0,0.893-0.181,1.737-0.543,2.533
		c-0.361,0.795-0.878,1.483-1.549,2.065c-0.494,0.427-1.052,0.752-1.675,0.975c-0.622,0.224-1.286,0.336-1.989,0.336
		c-0.664,0-1.279-0.101-1.849-0.3c-0.568-0.2-1.11-0.504-1.624-0.909v0.914h-2.558v-14.783h2.558V616.164z M228.575,620.906
		c0,0.907,0.301,1.675,0.903,2.305c0.603,0.629,1.33,0.944,2.183,0.944c0.969,0,1.769-0.313,2.406-0.939s0.955-1.41,0.955-2.351
		c0-0.9-0.316-1.675-0.949-2.325c-0.633-0.649-1.396-0.975-2.29-0.975c-0.907,0-1.669,0.319-2.284,0.96
		C228.883,619.165,228.575,619.958,228.575,620.906"/>
	<path clip-path="url(#SVGID_2_)" fill="#FFFFFF" d="M242.038,614.133h-2.539v-2.479h2.539V614.133z M239.499,615.27h2.539v11.169
		h-2.539V615.27z"/>
	<path clip-path="url(#SVGID_2_)" fill="#FFFFFF" d="M250.393,611.656h1.452v9.352c0,0.724,0.028,1.266,0.087,1.624
		c0.057,0.359,0.153,0.677,0.289,0.954c0.264,0.563,0.651,1.002,1.162,1.32c0.512,0.318,1.088,0.478,1.732,0.478
		c1.116,0,1.942-0.381,2.477-1.143c0.534-0.762,0.802-1.94,0.802-3.538v-9.047h1.432v9.402c0,1.914-0.381,3.344-1.142,4.284
		c-0.762,0.941-1.918,1.411-3.468,1.411c-1.659,0-2.877-0.46-3.655-1.381c-0.778-0.92-1.168-2.359-1.168-4.314V611.656z"/>
	<path clip-path="url(#SVGID_2_)" fill="#FFFFFF" d="M262.141,615.27h1.391v1.27c0.439-0.508,0.949-0.883,1.528-1.127
		c0.579-0.245,1.24-0.365,1.985-0.365c0.819,0,1.548,0.152,2.188,0.457c0.639,0.304,1.145,0.741,1.517,1.31
		c0.258,0.399,0.442,0.868,0.554,1.406c0.112,0.538,0.167,1.331,0.167,2.381v5.838h-1.41v-6.254c0-1.32-0.253-2.278-0.757-2.874
		c-0.505-0.596-1.311-0.895-2.422-0.895c-0.649,0-1.22,0.132-1.71,0.393c-0.492,0.26-0.879,0.634-1.163,1.121
		c-0.177,0.305-0.3,0.652-0.37,1.041c-0.072,0.39-0.107,1.068-0.107,2.036v5.432h-1.391V615.27z"/>
	<path clip-path="url(#SVGID_2_)" fill="#FFFFFF" d="M275.198,613.96h-1.432v-2.306h1.432V613.96z M273.766,615.27h1.432v11.169
		h-1.432V615.27z"/>
	<polygon clip-path="url(#SVGID_2_)" fill="#FFFFFF" points="278.487,626.439 278.487,616.711 276.366,616.711 276.366,615.27 
		278.487,615.27 278.487,611.656 279.919,611.656 279.919,615.27 282.042,615.27 282.042,616.711 279.919,616.711 279.919,626.439 	
		"/>
	<path clip-path="url(#SVGID_2_)" fill="#FFFFFF" d="M294.143,621.312h-10.082c0.088,1.215,0.528,2.197,1.32,2.947
		c0.792,0.749,1.781,1.124,2.965,1.124c0.84,0,1.594-0.218,2.264-0.652c0.67-0.436,1.188-1.04,1.553-1.815h1.625
		c-0.514,1.235-1.237,2.185-2.167,2.846c-0.931,0.661-2.009,0.991-3.234,0.991c-1.625,0-2.999-0.577-4.123-1.735
		c-1.123-1.157-1.685-2.548-1.685-4.173c0-1.698,0.55-3.104,1.65-4.214c1.1-1.109,2.506-1.664,4.219-1.664
		c1.678,0,3.047,0.576,4.107,1.732c1.059,1.155,1.588,2.658,1.588,4.508V621.312z M292.559,620.063
		c-0.27-1.242-0.768-2.178-1.492-2.805c-0.725-0.629-1.668-0.942-2.832-0.942c-1.084,0-2,0.338-2.752,1.013
		c-0.752,0.674-1.212,1.586-1.381,2.734H292.559z"/>
	<path clip-path="url(#SVGID_2_)" fill="#FFFFFF" d="M305.181,617.037v-2.487v-2.895h1.44v14.784h-1.44v-1.686
		c-0.501,0.623-1.123,1.108-1.868,1.457s-1.533,0.523-2.366,0.523c-1.611,0-2.968-0.569-4.071-1.706
		c-1.103-1.138-1.656-2.531-1.656-4.184c0-1.638,0.545-3.017,1.635-4.137c1.09-1.12,2.454-1.681,4.092-1.681
		c0.88,0,1.68,0.17,2.402,0.513C304.069,615.881,304.68,616.38,305.181,617.037 M305.222,620.966c0-1.272-0.423-2.358-1.266-3.259
		c-0.842-0.9-1.833-1.351-2.969-1.351c-1.178,0-2.187,0.427-3.026,1.284c-0.84,0.856-1.26,1.904-1.26,3.142
		c0,1.308,0.422,2.404,1.266,3.29c0.843,0.888,1.862,1.33,3.062,1.33c1.103,0,2.078-0.442,2.923-1.33
		C304.797,623.187,305.222,622.151,305.222,620.966"/>
	<path clip-path="url(#SVGID_2_)" fill="#FFFFFF" d="M316.208,613.108v13.331h-1.433v-14.783h3.97c0.872,0,1.575,0.066,2.107,0.198
		c0.531,0.132,1.013,0.351,1.447,0.654c0.588,0.412,1.053,0.965,1.394,1.655c0.343,0.69,0.515,1.422,0.515,2.193
		c0,1.144-0.341,2.129-1.021,2.954c-0.68,0.826-1.532,1.275-2.553,1.351l3.574,5.777h-1.728l-4.386-7.128h1.402
		c0.934,0,1.692-0.273,2.278-0.822c0.586-0.548,0.879-1.252,0.879-2.111c0-0.521-0.09-0.995-0.269-1.422
		c-0.18-0.427-0.446-0.799-0.797-1.118c-0.291-0.263-0.644-0.45-1.051-0.563c-0.41-0.111-1.14-0.167-2.189-0.167H316.208z"/>
	<path clip-path="url(#SVGID_2_)" fill="#FFFFFF" d="M336.909,621.312h-10.082c0.088,1.215,0.528,2.197,1.319,2.947
		c0.793,0.749,1.78,1.124,2.966,1.124c0.84,0,1.594-0.218,2.264-0.652c0.67-0.436,1.187-1.04,1.554-1.815h1.624
		c-0.514,1.235-1.237,2.185-2.168,2.846c-0.93,0.661-2.008,0.991-3.232,0.991c-1.625,0-3-0.577-4.123-1.735
		c-1.123-1.157-1.686-2.548-1.686-4.173c0-1.698,0.55-3.104,1.65-4.214c1.1-1.109,2.506-1.664,4.219-1.664
		c1.677,0,3.047,0.576,4.107,1.732c1.059,1.155,1.588,2.658,1.588,4.508V621.312z M335.325,620.063
		c-0.271-1.242-0.769-2.178-1.492-2.805c-0.726-0.629-1.668-0.942-2.832-0.942c-1.084,0-2,0.338-2.752,1.013
		c-0.752,0.674-1.211,1.586-1.381,2.734H335.325z"/>
	<path clip-path="url(#SVGID_2_)" fill="#FFFFFF" d="M347.987,624.672c-0.447,0.644-1.054,1.147-1.813,1.512
		c-0.762,0.366-1.584,0.55-2.463,0.55c-1.639,0-3.002-0.561-4.092-1.681c-1.09-1.121-1.635-2.503-1.635-4.147
		c0-1.672,0.557-3.07,1.67-4.193c1.112-1.124,2.506-1.686,4.178-1.686c0.859,0,1.648,0.174,2.367,0.522
		c0.717,0.349,1.312,0.852,1.787,1.507v-1.786h1.399v11.169h-1.399V624.672z M347.987,620.784c0-1.186-0.425-2.219-1.271-3.103
		c-0.847-0.883-1.822-1.324-2.923-1.324c-1.2,0-2.219,0.441-3.063,1.324c-0.843,0.884-1.265,1.979-1.265,3.285
		c0,1.245,0.42,2.296,1.26,3.152c0.839,0.855,1.849,1.285,3.026,1.285c1.136,0,2.127-0.452,2.968-1.355
		C347.565,623.143,347.987,622.055,347.987,620.784"/>
	<rect x="351.673" y="611.656" clip-path="url(#SVGID_2_)" fill="#FFFFFF" width="1.433" height="14.783"/>
	<polygon clip-path="url(#SVGID_2_)" fill="#FFFFFF" points="362.974,618.286 369.187,618.286 369.187,619.748 362.974,619.748 
		362.974,625.007 369.187,625.007 369.187,626.439 361.511,626.439 361.511,611.656 369.187,611.656 369.187,613.108 
		362.974,613.108 	"/>
	<path clip-path="url(#SVGID_2_)" fill="#FFFFFF" d="M371.015,622.926h1.473v0.04c0,0.697,0.199,1.273,0.597,1.73
		c0.401,0.458,0.896,0.687,1.483,0.687c0.562,0,1.029-0.176,1.402-0.528c0.37-0.352,0.559-0.795,0.559-1.33
		s-0.149-0.965-0.444-1.289c-0.293-0.326-0.826-0.63-1.597-0.914c-1.241-0.44-2.049-0.89-2.428-1.351
		c-0.379-0.46-0.568-1.076-0.568-1.848c0-0.873,0.316-1.614,0.949-2.224s1.399-0.914,2.301-0.914c0.953,0,1.71,0.271,2.273,0.813
		c0.562,0.542,0.862,1.296,0.903,2.265h-1.532c-0.035-0.529-0.201-0.938-0.505-1.229c-0.301-0.291-0.711-0.438-1.231-0.438
		c-0.467,0-0.858,0.158-1.168,0.472c-0.312,0.315-0.467,0.706-0.467,1.174c0,0.331,0.063,0.61,0.192,0.838
		c0.127,0.227,0.342,0.431,0.64,0.613c0.271,0.17,0.666,0.331,1.184,0.488c0.517,0.155,0.863,0.271,1.041,0.344
		c0.697,0.299,1.209,0.695,1.537,1.189s0.492,1.123,0.492,1.888c0,0.961-0.334,1.756-1.004,2.387
		c-0.67,0.629-1.521,0.944-2.55,0.944c-1.049,0-1.892-0.344-2.528-1.032C371.383,625.016,371.047,624.09,371.015,622.926"/>
	<polygon clip-path="url(#SVGID_2_)" fill="#FFFFFF" points="380.792,626.439 380.792,616.711 378.669,616.711 378.669,615.27 
		380.792,615.27 380.792,611.656 382.224,611.656 382.224,615.27 384.345,615.27 384.345,616.711 382.224,616.711 382.224,626.439 	
		"/>
	<path clip-path="url(#SVGID_2_)" fill="#FFFFFF" d="M394.925,624.672c-0.447,0.644-1.052,1.147-1.813,1.512
		c-0.762,0.366-1.583,0.55-2.463,0.55c-1.637,0-3.002-0.561-4.09-1.681c-1.092-1.121-1.635-2.503-1.635-4.147
		c0-1.672,0.557-3.07,1.67-4.193c1.112-1.124,2.506-1.686,4.178-1.686c0.859,0,1.648,0.174,2.365,0.522s1.312,0.852,1.787,1.507
		v-1.786h1.399v11.169h-1.399V624.672z M394.925,620.784c0-1.186-0.425-2.219-1.271-3.103c-0.845-0.883-1.82-1.324-2.923-1.324
		c-1.198,0-2.219,0.441-3.061,1.324c-0.845,0.884-1.265,1.979-1.265,3.285c0,1.245,0.418,2.296,1.258,3.152
		c0.841,0.855,1.849,1.285,3.026,1.285c1.138,0,2.127-0.452,2.97-1.355C394.503,623.143,394.925,622.055,394.925,620.784"/>
	<polygon clip-path="url(#SVGID_2_)" fill="#FFFFFF" points="399.565,626.439 399.565,616.711 397.442,616.711 397.442,615.27 
		399.565,615.27 399.565,611.656 400.997,611.656 400.997,615.27 403.118,615.27 403.118,616.711 400.997,616.711 400.997,626.439 	
		"/>
	<path clip-path="url(#SVGID_2_)" fill="#FFFFFF" d="M415.222,621.312H405.14c0.088,1.215,0.526,2.197,1.319,2.947
		c0.791,0.749,1.78,1.124,2.963,1.124c0.841,0,1.597-0.218,2.267-0.652c0.67-0.436,1.187-1.04,1.553-1.815h1.625
		c-0.516,1.235-1.239,2.185-2.168,2.846c-0.932,0.661-2.008,0.991-3.235,0.991c-1.622,0-2.997-0.577-4.12-1.735
		c-1.125-1.157-1.686-2.548-1.686-4.173c0-1.698,0.548-3.104,1.65-4.214c1.1-1.109,2.506-1.664,4.217-1.664
		c1.679,0,3.049,0.576,4.107,1.732c1.061,1.155,1.59,2.658,1.59,4.508V621.312z M413.638,620.063
		c-0.271-1.242-0.771-2.178-1.492-2.805c-0.726-0.629-1.67-0.942-2.834-0.942c-1.082,0-2,0.338-2.75,1.013
		c-0.752,0.674-1.213,1.586-1.381,2.734H413.638z"/>
	<path clip-path="url(#SVGID_2_)" fill="#FFFFFF" d="M434.745,615.484c-0.662-0.921-1.404-1.598-2.224-2.031
		c-0.817-0.433-1.754-0.65-2.802-0.65c-1.645,0-3.051,0.61-4.219,1.827c-1.168,1.22-1.75,2.667-1.75,4.347
		c0,1.787,0.58,3.293,1.74,4.519c1.159,1.226,2.569,1.838,4.229,1.838c1.021,0,1.947-0.214,2.771-0.64
		c0.825-0.427,1.545-1.063,2.151-1.909h1.728c-0.677,1.259-1.584,2.232-2.722,2.919c-1.136,0.688-2.414,1.031-3.828,1.031
		c-2.172,0-3.983-0.741-5.437-2.225c-1.452-1.481-2.178-3.334-2.178-5.554c0-1.035,0.196-2.017,0.59-2.944
		c0.392-0.927,0.967-1.763,1.726-2.508c0.703-0.704,1.494-1.236,2.369-1.599c0.877-0.362,1.827-0.543,2.851-0.543
		c1.469,0,2.788,0.358,3.965,1.076c1.174,0.717,2.101,1.732,2.787,3.046H434.745z"/>
	<path clip-path="url(#SVGID_2_)" fill="#FFFFFF" d="M437.761,620.865c0-1.638,0.563-3.04,1.686-4.203
		c1.123-1.164,2.453-1.746,3.99-1.746c1.617,0,2.998,0.571,4.139,1.716c1.138,1.144,1.71,2.508,1.71,4.092
		c0,1.665-0.558,3.086-1.675,4.264s-2.471,1.767-4.063,1.767c-1.616,0-2.985-0.577-4.104-1.73
		C438.321,623.868,437.761,622.483,437.761,620.865 M439.265,620.844c0,1.286,0.407,2.364,1.229,3.234
		c0.818,0.869,1.837,1.305,3.054,1.305c1.199,0,2.203-0.436,3.017-1.305c0.812-0.87,1.219-1.955,1.219-3.255
		c0-1.319-0.411-2.404-1.233-3.254c-0.823-0.849-1.866-1.273-3.133-1.273c-1.136,0-2.112,0.437-2.929,1.31
		C439.67,618.479,439.265,619.558,439.265,620.844"/>
	<rect x="451.286" y="623.738" clip-path="url(#SVGID_2_)" fill="#FFFFFF" width="1.451" height="2.701"/>
</g>
</svg>
